<?xml version="1.0" encoding="UTF-8" standalone="no"?>
<svg
   viewBox="0 0 24 24"
   width="64"
   height="64"
   fill="currentColor"
   version="1.1"
   id="svg1"
   sodipodi:docname="vocabulary-word.svg"
   inkscape:version="1.4.2 (f4327f4, 2025-05-13)"
   xmlns:inkscape="http://www.inkscape.org/namespaces/inkscape"
   xmlns:sodipodi="http://sodipodi.sourceforge.net/DTD/sodipodi-0.dtd"
   xmlns="http://www.w3.org/2000/svg"
   xmlns:svg="http://www.w3.org/2000/svg">
  <defs
     id="defs1" />
  <sodipodi:namedview
     id="namedview1"
     pagecolor="#ffffff"
     bordercolor="#000000"
     borderopacity="0.25"
     inkscape:showpageshadow="2"
     inkscape:pageopacity="0.0"
     inkscape:pagecheckerboard="0"
     inkscape:deskcolor="#d1d1d1"
     showgrid="true"
     inkscape:zoom="11.578874"
     inkscape:cx="30.918379"
     inkscape:cy="26.859262"
     inkscape:window-width="2560"
     inkscape:window-height="1334"
     inkscape:window-x="-11"
     inkscape:window-y="-11"
     inkscape:window-maximized="1"
     inkscape:current-layer="svg1">
    <inkscape:grid
       id="grid1"
       units="px"
       originx="0"
       originy="0"
       spacingx="0.375"
       spacingy="0.375"
       empcolor="#0099e5"
       empopacity="0.30196078"
       color="#0099e5"
       opacity="0.14901961"
       empspacing="5"
       enabled="true"
       visible="true" />
  </sodipodi:namedview>
  <path
     d="M 4.125,17.874756 V 19.875 h 12 v -2.000244 z"
     style=""
     id="path16" />
  <path
     d="m 14.124756,13.875 v 2.000244 H 16.125 V 13.875 Z"
     style=""
     id="path15" />
  <path
     d="m 9.1252441,13.875 v 2.000244 H 11.124756 V 13.875 Z"
     style=""
     id="path14" />
  <path
     d="m 4.125,13.875 v 2.000244 H 6.1252441 V 13.875 Z"
     style=""
     id="path13" />
  <path
     d="M 9.1252441,9.8752441 V 11.874756 H 11.124756 V 9.8752441 Z"
     style=""
     id="path12" />
  <path
     d="M 4.125,9.8752441 V 11.874756 H 6.1252441 V 9.8752441 Z"
     style=""
     id="path11" />
  <path
     d="m 20.124756,12.009521 a 6.1645045,6.1645045 0 0 1 -1.999512,0.509766 v 9.355957 H 2.1247559 V 7.875 h 9.5207521 a 6.1645045,6.1645045 0 0 1 -0.185303,-1.5 6.1645045,6.1645045 0 0 1 0.02051,-0.5002441 H 1.125 c -0.55228,0 -0.99975586,0.4482082 -0.99975586,1.0004882 V 22.875 c 0,0.5523 0.44747586,0.999756 0.99975586,0.999756 h 18 c 0.5523,0 0.999756,-0.447456 0.999756,-0.999756 z"
     id="path7"
     style="" />
  <path
     d="M 14.841064,11.874756 H 16.125 V 9.8752441 h -2.000244 v 1.5739749 a 6.1645045,6.1645045 0 0 0 0.716308,0.425537 z"
     style="fill:#000000;stroke:#000000;stroke-width:0.420991;stroke-linecap:round;stroke-linejoin:round"
     id="path10" />
  <path
     d="M 18.125244,12.519287 V 7.875 h -6.479736 a 6.1645045,6.1645045 0 0 0 2.479248,3.574219 V 9.8752441 H 16.125 v 1.9995119 h -1.283936 a 6.1645045,6.1645045 0 0 0 2.783936,0.665039 6.1645045,6.1645045 0 0 0 0.500244,-0.02051 z"
     style="fill:#000000;stroke:#000000;stroke-width:0.420991;stroke-linecap:round;stroke-linejoin:round"
     id="path9" />
  <path
     d="M 20.124756,12.009521 V 6.8752441 c 0,-0.55228 -0.447456,-1.0004882 -0.999756,-1.0004882 H 11.480713 A 6.1645045,6.1645045 0 0 0 11.460205,6.375 a 6.1645045,6.1645045 0 0 0 0.185303,1.5 h 6.479736 v 4.644287 a 6.1645045,6.1645045 0 0 0 1.999512,-0.509766 z"
     style="fill:#000000;stroke:#000000;stroke-width:0.420991;stroke-linecap:round;stroke-linejoin:round"
     id="path8" />
  <path
     d="M 17.625,0.21020508 A 6.1645045,6.1645045 0 0 0 11.480713,5.8747559 H 19.125 c 0.5523,0 0.999756,0.4482082 0.999756,1.0004882 V 12.009521 A 6.1645045,6.1645045 0 0 0 23.789795,6.375 6.1645045,6.1645045 0 0 0 17.625,0.21020508 Z"
     style="fill:#000000;stroke:#000000;stroke-width:0.420991;stroke-linecap:round;stroke-linejoin:round"
     id="path6" />
  <text
     xml:space="preserve"
     style="font-style:normal;font-variant:normal;font-weight:normal;font-stretch:normal;font-size:8.25252px;line-height:0.6;font-family:SuperFrench;-inkscape-font-specification:SuperFrench;text-align:start;writing-mode:lr-tb;direction:ltr;text-anchor:start;fill:#406a50;fill-opacity:1;stroke:#406a50;stroke-width:0.75;stroke-linecap:round;stroke-linejoin:round;stroke-dasharray:none;stroke-opacity:1"
     x="13.871502"
     y="9.6323614"
     id="text36"><tspan
       sodipodi:role="line"
       id="tspan36"
       style="font-style:normal;font-variant:normal;font-weight:normal;font-stretch:normal;font-family:'Segoe Fluent Icons';-inkscape-font-specification:'Segoe Fluent Icons';stroke-width:0.75;stroke-dasharray:none;stroke:#406a50;stroke-opacity:1;fill:#406a50;fill-opacity:1"
       x="13.871502"
       y="9.6323614">W</tspan></text>
</svg>
